# xmcd
#
# Track frame offsets: 
#        150
#        23026
#        39337
#
# Disc length: 787 seconds
#
# Revision: 0
# Processed by: cddbd v1.5.2PL0 Copyright (c) Steve Scherf et al.
# Submitted via: ExactAudioCopy v1.0b3
#
DISCID=17031103
DTITLE=宮野真守 - ヒカリ、ヒカル
DYEAR=1900
DGENRE=Acid Jazz
TTITLE0=ヒカリ、ヒカル
TTITLE1=DISCOTIQUE09
TTITLE2=Xmas to you
EXTD=
EXTT0=
EXTT1=
EXTT2=
PLAYORDER=
